<svg xmlns="http://www.w3.org/2000/svg" viewBox="0 0 1440 320">
  <defs>
    <linearGradient id="gradiente" x1="0%" y1="0%" x2="100%" y2="0%">
      <stop offset="0%" style="stop-color:#571f50;stop-opacity:1" />
      <stop offset="100%" style="stop-color:#FFFFFF;stop-opacity:1" />
    </linearGradient>
  </defs>
  <path fill="url(#gradiente)" fill-opacity="0.7" d="M0,192L34.3,176C68.6,160,137,128,206,144C274.3,160,343,224,411,240C480,256,549,224,617,197.3C685.7,171,754,149,823,160C891.4,171,960,213,1029,224C1097.1,235,1166,213,1234,197.3C1302.9,181,1371,171,1406,165.3L1440,160L1440,320L1405.7,320C1371.4,320,1303,320,1234,320C1165.7,320,1097,320,1029,320C960,320,891,320,823,320C754.3,320,686,320,617,320C548.6,320,480,320,411,320C342.9,320,274,320,206,320C137.1,320,69,320,34,320L0,320Z"></path>
</svg>
