<svg xmlns="http://www.w3.org/2000/svg" viewBox="0 0 1440 320">
  <defs>
    <linearGradient id="gradiente" x1="0%" y1="0%" x2="100%" y2="0%">
      <stop offset="0%" style="stop-color:#FFFFFF;stop-opacity:1" />
      <stop offset="100%" style="stop-color:#DD2476;stop-opacity:1" />
    </linearGradient>
  </defs>
  <path fill="url(#gradiente)" fill-opacity="0.7" d="M0,96L40,101.3C80,107,160,117,240,106.7C320,96,400,64,480,58.7C560,53,640,75,720,96C800,117,880,139,960,133.3C1040,128,1120,96,1200,74.7C1280,53,1360,43,1400,37.3L1440,32L1440,0L1400,0C1360,0,1280,0,1200,0C1120,0,1040,0,960,0C880,0,800,0,720,0C640,0,560,0,480,0C400,0,320,0,240,0C160,0,80,0,40,0L0,0Z"></path>
</svg>
