<svg xmlns="http://www.w3.org/2000/svg" viewBox="0 0 1440 320">
  <defs>
    <linearGradient id="grad" x1="0%" y1="0%" x2="100%" y2="0%">
      <stop offset="0%" style="stop-color:#55204F;stop-opacity:1" />
      <stop offset="100%" style="stop-color:#9D5679;stop-opacity:1" />
    </linearGradient>
  </defs>
  <path fill="url(#grad)" fill-opacity="1" d="M0,320L40,288C80,256,160,192,240,181.3C320,171,400,213,480,202.7C560,192,640,128,720,122.7C800,117,880,171,960,202.7C1040,235,1120,245,1200,234.7C1280,224,1360,192,1400,176L1440,160L1440,0L1400,0C1360,0,1280,0,1200,0C1120,0,1040,0,960,0C880,0,800,0,720,0C640,0,560,0,480,0C400,0,320,0,240,0C160,0,80,0,40,0L0,0Z"></path>
</svg>
