<svg xmlns="http://www.w3.org/2000/svg" viewBox="0 0 1440 320">
  <!-- Definindo o gradiente -->
  <linearGradient id="gradiente" x1="0%" y1="0%" x2="100%" y2="0%">
    <stop  offset="0%" style="stop-color:#9D5679;stop-opacity:1" />
    <stop  offset="100%" style="stop-color:#55204F;stop-opacity:1"/>
  </linearGradient>

  <!-- Aplicando o gradiente ao path -->
  <path fill="url(#gradiente)" fill-opacity="1" d="M0,224L48,234.7C96,245,192,267,288,234.7C384,203,480,117,576,74.7C672,32,768,32,864,48C960,64,1056,96,1152,90.7C1248,85,1344,43,1392,21.3L1440,0L1440,0L1392,0C1344,0,1248,0,1152,0C1056,0,960,0,864,0C768,0,672,0,576,0C480,0,384,0,288,0C192,0,96,0,48,0L0,0Z"></path>
</svg>