<svg viewBox="0 0 200 200" xmlns="http://www.w3.org/2000/svg">
  <path fill="#571f50" d="M29.2,-44.8C40.2,-44.2,53.2,-41.2,64.6,-33.3C76.1,-25.4,86,-12.7,83.9,-1.2C81.8,10.3,67.7,20.6,58.3,32C48.8,43.4,44.1,55.8,35.2,59.2C26.3,62.7,13.1,57.2,3.3,51.6C-6.6,45.9,-13.2,40.1,-20.7,35.8C-28.2,31.6,-36.7,28.8,-49.7,23.1C-62.7,17.4,-80.4,8.7,-84.8,-2.6C-89.3,-13.9,-80.7,-27.7,-71.4,-40C-62.2,-52.2,-52.3,-62.8,-40.2,-62.8C-28.2,-62.8,-14.1,-52.3,-2.5,-47.9C9.1,-43.5,18.2,-45.4,29.2,-44.8Z" transform="translate(100 100)" />
</svg>