<svg viewBox="0 0 200 200" xmlns="http://www.w3.org/2000/svg">
  <path fill="#571F5090" d="M32,-62.4C40,-50.7,44.1,-39.3,53.3,-28.9C62.5,-18.6,76.8,-9.3,78,0.7C79.3,10.7,67.5,21.4,55.2,26.4C42.9,31.4,30.1,30.6,20.8,33.5C11.5,36.4,5.7,43,-3.3,48.7C-12.3,54.4,-24.7,59.2,-34.9,56.9C-45.1,54.5,-53.2,45,-51.6,34.3C-50,23.6,-38.8,11.8,-34.7,2.4C-30.5,-7.1,-33.6,-14.1,-36.2,-26.6C-38.8,-39,-41,-56.9,-34.9,-69.7C-28.8,-82.5,-14.4,-90.2,-1.2,-88.1C12,-86,23.9,-74.1,32,-62.4Z" transform="translate(100 100)" />
</svg>